<svg width="67" height="47" viewBox="0 0 67 47" fill="none" xmlns="http://www.w3.org/2000/svg">
<path d="M29.3636 16.3884C28.1191 18.3023 23.1332 21.173 18.2091 21.0673C18.9789 22.5172 20.7494 23.858 24.1244 23.2781C31.225 22.058 39.7618 12.8912 39.1502 6.62113H39.1461C39.1212 6.62113 39.0959 6.62113 39.0711 6.62097C38.8844 8.68062 37.556 11.6366 36.3125 12.6576C37.0535 11.7164 38.4328 9.15969 38.401 6.48266C38.3223 -0.129907 29.636 -1.96879 19.5795 2.29274C19.5766 2.29395 19.6033 2.28678 19.6562 2.27255L19.6589 2.27181C20.3603 2.08309 25.5133 0.696633 27.8713 0.998096C12.4926 3.40445 0.318693 14.791 0.00857253 22.4191C-0.296536 29.9249 7.60047 31.1106 14.4732 32.1425C19.8878 32.9555 24.6667 33.673 24.2982 37.3104C25.3611 33.9655 20.3821 31.7845 18.1301 30.798C17.6579 30.5912 17.3055 30.4368 17.154 30.3353C17.2485 30.2932 17.316 30.2944 17.3796 30.3075C19.536 30.7397 24.769 33.0566 24.888 36.1067C25.0918 41.3231 17.8852 42.4976 16.4639 41.43C16.6745 42.2431 18.381 43.2682 20.2339 42.8136C19.3967 43.2643 15.8413 43.2772 15.6683 40.5571C15.5637 38.9149 16.3675 37.8529 16.3675 37.8529C16.2091 37.8666 15.8601 38.3683 15.749 38.5835C15.6734 38.7292 15.6005 38.8439 15.4008 38.831C15.3141 38.8255 15.1748 38.8969 15.1318 38.9795C13.6685 41.8059 15.7265 45.1385 19.708 44.8427C22.3076 44.6499 24.0556 43.4291 24.7681 42.6568C24.3834 42.9205 23.6614 43.3756 23.1047 43.4551C23.1003 43.4442 23.096 43.4333 23.0917 43.4224C23.0873 43.4115 23.0829 43.4006 23.0785 43.3897C24.9475 42.2982 26.4942 40.6845 26.7651 38.5091C27.5952 31.841 19.9146 29.4703 13.0383 27.3479C7.98218 25.7872 3.36096 24.3609 2.8781 21.4589C1.35642 12.3129 29.8524 0.00143233 36.5095 5.83508C35.8154 2.36465 27.3293 3.51215 26.0001 3.69189L25.9994 3.69199C25.8867 3.70723 25.8257 3.71548 25.8255 3.71331C30.6822 2.09368 37.2226 2.39778 37.3759 6.32908C37.4989 9.47618 31.3804 17.2463 19.6835 19.7935C22.0423 20.575 27.0898 18.4145 29.3636 16.3884Z" fill="black"/>
<path d="M24.6282 5.74131C11.8052 8.74675 -1.43968 19.6584 5.48729 22.3461C3.46194 19.0856 8.94621 10.9259 24.6282 5.74131Z" fill="black"/>
<path d="M40.6521 22.8997C40.574 22.7446 40.4345 22.6125 40.2893 22.4751C40.0119 22.2125 39.7141 21.9306 39.7874 21.432C39.7899 21.4136 39.7737 21.3923 39.7585 21.3725C39.7543 21.367 39.7501 21.3614 39.7464 21.3562C39.589 21.129 39.4426 21.1448 39.2842 21.3854C38.898 21.9706 38.5014 22.5509 38.1038 23.1259C37.0106 24.7069 32.9307 29.934 31.5223 30.1066C31.2427 30.1403 31.1267 29.926 31.1064 29.6895C31.0308 28.8008 31.9172 26.5531 33.2679 24.8323C31.9736 27.1616 31.7646 28.5749 32.0364 28.8948C32.9948 25.3406 36.1622 21.9879 38.794 19.7122L38.8055 19.7004C38.855 19.6493 38.8958 19.6073 38.8952 19.5614C38.8856 18.7974 37.7757 17.9568 36.5415 18.0069C36.7068 17.4681 36.2533 17.0966 35.901 17.1118C35.5546 17.7658 33.706 20.5983 32.6984 21.7072C30.0327 24.6791 26.18 27.7385 22.0588 29.499C21.9781 29.541 22.8059 30.3553 24.5146 29.5523C24.4783 29.6369 24.0074 30.0587 23.5767 30.1123C23.812 30.3263 24.7284 30.3483 25.4564 30.1112C27.0933 29.577 29.6284 26.8957 30.386 25.89C30.3408 25.9671 30.2811 26.066 30.2099 26.184C29.5576 27.2653 27.9387 29.9486 27.5963 32.104C27.3979 33.3531 27.5421 34.3862 28.2651 34.4933C28.4061 35.6871 29.2985 36.5514 29.9438 36.4688C30.0542 36.4551 30.1695 36.3648 30.2038 36.189C30.841 32.9096 35.2416 27.4266 35.6417 27.9817C34.2373 29.8919 32.9787 33.5754 33.6058 35.321C33.9827 36.3702 35.5637 36.7729 37.6206 35.9455C35.9762 35.1548 36.3471 31.1078 36.981 29.5241C36.4678 32.0979 36.7964 34.385 37.4798 34.918L37.5216 34.8915C36.4645 30.0618 38.8781 25.5208 40.6259 23.6431C40.7825 23.3761 40.7868 23.1671 40.6521 22.8997Z" fill="black"/>
<path d="M65.3768 29.6072C66.1896 28.6322 66.1721 27.09 65.9128 26.8024C68.1255 26.6126 66.4487 29.308 65.3768 29.6072Z" fill="black"/>
<path d="M18.328 36.7889C15.4331 37.9954 16.4172 41.5918 18.3803 41.2337C16.9163 40.9779 16.8669 37.9888 20.4302 37.2395C20.414 36.4647 19.0905 36.4706 18.328 36.7889Z" fill="black"/>
<path d="M14.1494 44.5186C14.5941 44.8831 14.55 45.4687 13.8811 45.5818C13.2869 45.6822 12.6565 45.0803 12.4265 44.3695C12.0581 43.23 12.6641 42.0783 13.2471 41.6527C12.8178 42.4245 13.2023 43.7436 14.1494 44.5186Z" fill="black"/>
<path fill-rule="evenodd" clip-rule="evenodd" d="M65.0163 26.4719C64.5019 25.1696 59.0511 25.7005 55.8352 27.1023C55.7657 26.9438 55.6924 26.7957 55.6138 26.6584C56.529 24.3011 59.309 19.9917 62.2848 17.0553C62.7982 16.5488 63.3171 16.0833 63.8332 15.6756C63.8941 14.7967 61.5807 13.655 60.053 14.9068C58.189 16.9106 56.2744 20.8131 55.4268 22.6621L55.2501 22.6682C55.6423 20.5977 57.7191 16.8248 58.9871 15.5917C57.327 15.6504 53.8388 22.639 51.9616 29.0653H51.9574C49.978 29.9109 46.2896 32.1694 45.0286 33.5233C44.9585 33.5987 44.8669 33.3202 44.8608 33.2212C44.6645 30.1009 47.9971 27.7668 51.0021 25.6622C51.2843 25.4646 51.5635 25.269 51.8367 25.075C52.2388 24.789 51.9643 23.9482 51.7959 23.8014C51.2 24.6902 50.0904 25.6008 48.9409 26.5442C47.7787 27.498 46.5757 28.4852 45.8215 29.5173C46.355 28.4736 47.7617 27.2114 49.0493 26.0562C50.3895 24.8537 51.6006 23.7671 51.5632 23.1635C51.4571 21.4516 49.3093 19.6846 48.3896 19.2142C48.5565 18.9218 48.9733 18.1107 48.8342 17.2461C48.6752 16.2571 47.6577 15.822 46.7967 15.9066C46.9513 16.4853 46.7825 17.3893 46.6258 17.8679C44.9505 16.7242 42.3465 16.5497 42.3234 18.0125C43.4819 17.1729 45.8821 17.7827 46.941 18.5108C42.2691 16.9779 41.0707 19.5329 41.6746 20.8853C41.6746 20.8853 43.6196 20.826 45.1832 21.4103C44.8307 22.4188 42.5028 27.1064 39.8421 30.0215C39.9068 30.0003 39.9707 29.9819 40.0333 29.9638L40.0338 29.9637C40.1528 29.9294 40.2672 29.8963 40.3732 29.8484C40.6954 29.7036 43.6471 25.6987 44.4645 24.4531C44.4805 24.5316 43.8088 25.9455 42.5699 27.8728C43.9472 26.2697 46.1693 22.7724 46.7262 21.8758C46.7262 21.8758 48.3566 22.5223 48.4281 23.6759C48.4797 24.5093 46.9681 25.8418 45.2275 27.3763C42.8876 29.439 40.1337 31.8667 40.2058 33.9378C40.2289 34.6004 40.5713 35.5673 41.2558 36.1964C40.9785 35.6332 40.8412 34.8957 40.9311 34.0708C41.0561 32.9235 41.6199 31.6078 42.858 30.3566C40.5786 33.2183 41.3838 35.8079 41.8716 36.5189C34.4329 36.9946 28.4052 39.6696 28.3767 43.8241C28.3942 43.9155 28.317 44.0402 28.259 44.1326C27.5101 45.3284 27.8373 46.8202 28.3478 47C31.8552 42.722 37.8634 39.2274 43.1369 38.224C43.1378 38.1247 42.7114 38.1395 42.0206 38.2508C39.468 38.6144 36.2334 39.5469 33.6304 41.1301C33.5603 38.9253 43.0199 36.6908 48.9762 37.5459C49.074 36.6718 47.2312 36.3316 45.1808 36.2975C46.1557 32.3853 52.2617 29.1432 54.6106 28.3319C52.2922 29.3299 48.5668 31.6544 46.9061 34.1857C48.4756 32.7686 50.5641 31.2392 51.4474 30.8255C49.2697 39.9398 51.5772 43.6484 53.2254 43.5903C54.3709 43.5499 55.4315 42.3516 56.0948 39.6071C55.5739 40.8385 54.9118 41.669 54.2836 41.6912C52.725 41.7463 52.5188 39.4093 52.5188 39.4093C53.5151 41.9748 56.3764 39.9793 56.6895 35.4023C56.7116 35.0858 56.7311 34.7611 56.7464 34.4234C56.8144 32.9363 56.7497 31.0968 56.4836 29.4865C58.7125 28.796 62.3224 28.7475 63.2974 29.5093C63.5383 28.151 61.0604 27.8322 57.0464 28.7182C59.7637 27.8275 63.6068 27.5135 63.8597 28.8209C63.988 29.4845 63.6092 30.4641 63.3202 30.8408C63.1806 31.0224 63.6432 30.8848 63.7649 30.7264C64.4351 29.8557 65.5401 27.7982 65.0163 26.4719ZM54.1065 38.6181C52.868 38.6927 53.0766 33.8416 54.5612 29.9646C54.6995 29.9043 54.856 29.8494 55.0249 29.7974C55.2812 32.7823 54.8049 35.9754 54.312 37.3777C55.0198 37.3529 55.7966 34.2348 55.7519 31.2743L55.8989 31.2694C56.2968 35.9823 54.886 38.5903 54.1065 38.6181Z" fill="black"/>
</svg>
